<svg width="165" height="30" viewBox="0 0 165 30" fill="none" xmlns="http://www.w3.org/2000/svg">
<g clip-path="url(#clip0)">
<path d="M44.096 22.264C47.408 22.264 49.376 20.848 49.376 18.136C49.376 15.448 47.648 14.656 44.504 14.2C42.68 13.936 42.08 13.624 42.08 12.832C42.08 12.064 42.728 11.536 43.856 11.536C45.056 11.536 45.632 12.016 45.824 13.048H49.016C48.704 10.168 46.616 9.16 43.832 9.16C41.264 9.16 38.864 10.456 38.864 13.072C38.864 15.52 40.16 16.48 43.496 16.984C45.296 17.248 46.04 17.608 46.04 18.472C46.04 19.336 45.416 19.84 44.072 19.84C42.56 19.84 42.008 19.192 41.864 18.064H38.624C38.744 20.776 40.712 22.264 44.096 22.264ZM56.9389 19.624C54.9709 19.624 53.8669 18.184 53.8669 15.784V15.592C53.8669 13.192 55.0189 11.8 56.9389 11.8C58.8829 11.8 60.0109 13.24 60.0109 15.64V15.808C60.0109 18.184 58.8829 19.624 56.9389 19.624ZM56.9149 22.264C60.6829 22.264 63.5389 19.744 63.5389 15.784V15.592C63.5389 11.68 60.7069 9.16 56.9389 9.16C53.1709 9.16 50.3149 11.728 50.3149 15.664V15.856C50.3149 19.768 53.1709 22.264 56.9149 22.264ZM71.0599 22.264C74.7079 22.264 76.8679 20.2 77.0599 17.224H73.9159C73.7479 18.832 72.6199 19.648 71.2279 19.648C69.2839 19.648 68.1559 18.352 68.1559 15.832V15.64C68.1559 13.24 69.3559 11.896 71.1559 11.896C72.5719 11.896 73.4599 12.568 73.6999 14.032H76.9879C76.6759 10.432 73.9879 9.16 71.0839 9.16C67.5079 9.16 64.6039 11.632 64.6039 15.688V15.88C64.6039 19.984 67.3879 22.264 71.0599 22.264ZM78.8429 22H82.2989V9.448H78.8429V22ZM80.5469 7.744C81.6749 7.744 82.5389 6.928 82.5389 5.848C82.5389 4.768 81.6749 3.952 80.5469 3.952C79.4429 3.952 78.5789 4.768 78.5789 5.848C78.5789 6.928 79.4429 7.744 80.5469 7.744ZM88.3809 22.264C90.3489 22.264 91.4529 21.496 92.1729 20.488V22H95.5569V13.816C95.5569 10.408 93.3729 9.16 90.3009 9.16C87.2289 9.16 84.8769 10.48 84.6609 13.456H87.9489C88.0929 12.376 88.7169 11.68 90.0849 11.68C91.6689 11.68 92.1249 12.496 92.1249 13.984V14.488H90.7089C86.8689 14.488 84.1809 15.592 84.1809 18.52C84.1809 21.16 86.1009 22.264 88.3809 22.264ZM89.4129 19.84C88.1409 19.84 87.5889 19.24 87.5889 18.328C87.5889 16.984 88.7649 16.552 90.7809 16.552H92.1249V17.608C92.1249 19 90.9489 19.84 89.4129 19.84ZM98.1398 22H101.596V3.76H98.1398V22ZM105.254 22H106.526V10.528H110.03V9.448H106.526V7.072C106.526 5.248 107.462 4.456 108.854 4.456C109.382 4.456 109.838 4.552 110.198 4.672V3.592C109.742 3.448 109.406 3.376 108.806 3.376C106.718 3.376 105.254 4.576 105.254 7.192V9.448H103.358V10.528H105.254V22ZM116.721 21.112C113.985 21.112 111.969 19.048 111.969 15.832V15.64C111.969 12.376 114.033 10.336 116.721 10.336C119.385 10.336 121.449 12.328 121.449 15.64V15.832C121.449 19.072 119.409 21.112 116.721 21.112ZM116.697 22.192C120.081 22.192 122.769 19.6 122.769 15.808V15.616C122.769 11.8 120.105 9.256 116.721 9.256C113.361 9.256 110.649 11.872 110.649 15.64V15.832C110.649 19.528 113.289 22.192 116.697 22.192ZM125.313 22H126.609V3.448H125.313V22ZM130.133 22H131.429V3.448H130.133V22ZM140.042 21.112C137.306 21.112 135.29 19.048 135.29 15.832V15.64C135.29 12.376 137.354 10.336 140.042 10.336C142.706 10.336 144.77 12.328 144.77 15.64V15.832C144.77 19.072 142.73 21.112 140.042 21.112ZM140.018 22.192C143.402 22.192 146.09 19.6 146.09 15.808V15.616C146.09 11.8 143.426 9.256 140.042 9.256C136.682 9.256 133.97 11.872 133.97 15.64V15.832C133.97 19.528 136.61 22.192 140.018 22.192ZM150.991 22H152.431L155.767 11.488L158.887 22H160.351L164.311 9.448H163.015L159.631 20.44L156.319 9.448H155.239L151.807 20.44L148.447 9.448H147.079L150.991 22Z" fill="#1D1D1F"/>
<path fill-rule="evenodd" clip-rule="evenodd" d="M24.9725 6.21417e-06H5.0262C2.25453 -0.00405966 0.00423669 2.17928 0 4.87667V17.0687C0 19.7622 2.25031 21.9454 4.71251 21.9454H6.34488C9.50426 21.9454 12.2796 30.0005 15.1582 30.0005C17.8038 30.0005 20.527 21.9454 23.3563 21.9454H24.9725C27.7445 21.9497 29.9952 19.7664 30 17.0687V4.87667C29.9952 2.179 27.7445 -0.00425057 24.9725 6.21417e-06Z" fill="#FF3366"/>
<path fill-rule="evenodd" clip-rule="evenodd" d="M14.9992 5C13.1917 5 11.7265 6.53324 11.7265 8.42451C11.7265 10.3158 13.1918 11.849 14.9992 11.849C16.8065 11.849 18.2718 10.3158 18.2718 8.42451C18.2718 6.53324 16.8067 5 14.9992 5ZM9.27852 16.9999C9.20708 17.0016 9.13795 16.9727 9.08648 16.9194C9.03501 16.8661 9.00547 16.793 9.00441 16.7163L9 15.9215C9 14.3044 9.83545 12.9902 11.3788 12.9902H18.6212C20.1648 12.9902 21 14.3039 21 15.9192V16.7141C20.9991 16.7908 20.9698 16.8639 20.9187 16.9174C20.8676 16.971 20.7987 17.0004 20.7273 16.9994H9.27805L9.27852 16.9999Z" fill="white"/>
</g>
<defs>
<clipPath id="clip0">
<rect width="165" height="30" fill="white"/>
</clipPath>
</defs>
</svg>
